<?xml version="1.0" standalone="no"?>
<!DOCTYPE svg PUBLIC "-//W3C//DTD SVG 20010904//EN"
 "http://www.w3.org/TR/2001/REC-SVG-20010904/DTD/svg10.dtd">
<svg version="1.0" xmlns="http://www.w3.org/2000/svg"
 width="950.000000pt" height="950.000000pt" viewBox="0 0 950.000000 950.000000"
 preserveAspectRatio="xMidYMid meet">
<metadata>
Created by potrace 1.15, written by Peter Selinger 2001-2017
</metadata>
<g transform="translate(0.000000,950.000000) scale(0.100000,-0.100000)"
fill="#000000" stroke="none">
<path d="M6835 4716 c-20 -48 -20 -47 26 -142 41 -85 60 -138 62 -184 2 -26
-13 -30 -67 -19 -14 3 -19 -3 -21 -22 -4 -34 -33 -91 -43 -85 -16 10 -31 -11
-38 -52 -6 -39 -4 -44 32 -79 21 -21 46 -54 55 -73 10 -19 37 -55 61 -81 25
-25 47 -52 51 -61 7 -19 -14 -30 -34 -17 -8 5 -25 9 -38 9 -13 0 -52 13 -87
30 -34 16 -75 32 -91 36 -15 4 -33 10 -39 15 -5 4 -21 5 -33 2 -23 -6 -23 -7
-5 -20 57 -42 198 -192 230 -246 20 -34 46 -72 57 -84 17 -19 18 -25 7 -39
-17 -20 -72 -14 -148 16 -59 23 -108 26 -114 8 -4 -12 66 -74 167 -148 282
-206 236 -176 650 -425 154 -92 311 -190 350 -217 54 -38 83 -51 125 -57 75
-10 111 -32 195 -115 39 -39 100 -95 136 -124 63 -51 182 -176 246 -257 17
-22 49 -79 70 -125 61 -131 58 -131 145 7 125 199 123 194 107 204 -20 12 -35
11 -47 -4 -16 -19 -73 -12 -86 10 -20 33 -43 100 -50 143 -4 24 -26 102 -50
174 -23 72 -52 164 -65 203 -12 40 -51 131 -86 202 -69 138 -94 207 -145 391
-29 104 -89 270 -142 390 -77 176 -363 620 -400 620 -7 0 -33 -42 -44 -72 -3
-10 -16 -20 -28 -23 -51 -15 -76 -28 -76 -42 0 -9 18 -56 40 -105 41 -93 48
-133 29 -185 -16 -48 -46 -47 -129 3 -39 24 -77 45 -83 46 -18 4 -117 -45
-117 -58 0 -15 -28 -26 -35 -14 -4 6 -3 15 0 20 3 6 -1 10 -9 10 -9 0 -16 4
-16 10 0 5 -37 64 -83 132 -45 68 -96 146 -112 173 -83 144 -205 313 -247 343
-17 12 -20 10 -33 -22z"/>
<path d="M2174 4149 c3 -17 6 -38 6 -45 0 -8 10 -14 23 -14 12 0 46 -9 74 -20
54 -20 94 -21 278 -4 134 12 190 55 120 92 -13 6 -36 7 -65 2 -68 -14 -174
-12 -284 5 -55 8 -113 15 -129 15 -28 0 -29 -2 -23 -31z"/>
<path d="M1368 2873 c-17 -4 -22 -24 -21 -85 0 -26 -16 -22 -29 7 -10 23 -12
23 -38 10 -15 -8 -31 -22 -35 -32 -6 -16 -8 -16 -19 6 l-13 23 -21 -22 c-13
-15 -19 -31 -16 -48 6 -30 35 -82 46 -82 5 0 27 -12 49 -26 43 -27 57 -27 41
2 -8 13 -4 22 18 41 15 12 33 23 40 23 8 0 7 8 -5 26 -12 19 -13 25 -3 22 15
-5 39 -50 41 -78 1 -11 6 -20 11 -20 5 0 7 -2 4 -5 -9 -10 21 -147 38 -173 9
-14 16 -43 16 -66 -1 -34 13 -142 22 -181 2 -5 6 -21 9 -35 4 -14 9 -49 12
-79 3 -33 16 -74 34 -105 27 -48 44 -93 73 -196 l12 -45 6 45 c3 25 0 72 -7
105 -8 40 -10 104 -7 190 5 113 3 142 -16 220 -26 106 -72 274 -100 363 -11
34 -20 72 -20 84 0 29 -37 82 -71 102 -15 9 -29 15 -31 15 -1 -1 -11 -3 -20
-6z"/>
<path d="M4915 1632 c-17 -11 -62 -29 -100 -42 -141 -46 -164 -68 -166 -158
-1 -62 -20 -122 -42 -136 -19 -11 -15 -15 -100 86 -22 25 -25 26 -70 15 -64
-14 -101 -49 -94 -86 3 -15 2 -46 -3 -68 -8 -32 -4 -67 15 -158 14 -65 32
-172 41 -239 8 -67 19 -139 24 -161 5 -22 10 -183 11 -357 l3 -318 34 -6 c63
-12 671 3 807 20 139 17 236 33 242 40 3 2 4 159 4 348 0 379 -5 425 -73 658
-32 111 -55 165 -94 217 -13 17 -45 75 -70 130 -35 72 -62 113 -104 154 -51
52 -61 57 -121 68 -89 15 -109 14 -144 -7z"/>
<path d="M4214 576 c-8 -22 4 -198 15 -229 10 -25 3 -58 -22 -114 -13 -30 -1
-195 16 -205 6 -4 30 -8 51 -8 l39 0 -7 212 c-4 117 -6 246 -6 286 l1 72 -41
0 c-26 0 -43 -5 -46 -14z"/>
</g>
</svg>
